<svg xmlns="http://www.w3.org/2000/svg" viewBox="0 0 98 98" aria-hidden="true">
  <path fill="currentColor" d="M67.478,24.548c0-5.705,4.682-10.331,10.459-10.331c5.776,0,10.459,4.625,10.459,10.331c0,5.705-4.683,10.33-10.459,10.33  C72.16,34.878,67.478,30.253,67.478,24.548z M35.313,40.523c-1.57-2.6-3.917-4.684-6.713-5.923  c-2.314,1.928-5.298,3.085-8.537,3.085s-6.223-1.157-8.537-3.085c-5.188,2.299-8.83,7.504-8.83,13.518v7.427  c0,0.493,0.403,0.896,0.896,0.896h20.667C25.701,49.781,29.763,44.096,35.313,40.523z M20.063,34.878  c5.776,0,10.459-4.625,10.459-10.33c0-5.705-4.683-10.331-10.459-10.331c-5.776,0-10.459,4.625-10.459,10.331  C9.604,30.253,14.287,34.878,20.063,34.878z M72.661,70.845c-0.969,2.541-2.336,4.885-4.024,6.957l14.659,8.463l4.018-6.96  L72.661,70.845z M71.511,61.824c0,12.433-10.079,22.511-22.511,22.511S26.489,74.257,26.489,61.824  c0-12.433,10.079-22.511,22.511-22.511S71.511,49.392,71.511,61.824z M64.902,61.824c0-8.782-7.12-15.902-15.902-15.902  s-15.902,7.12-15.902,15.902S40.218,77.727,49,77.727S64.902,70.607,64.902,61.824z M57.479,54.858  c-0.981-0.839-2.456-0.724-3.295,0.256l-7.163,8.356l-3.242-3.61c-0.864-0.96-2.344-1.038-3.304-0.174  c-0.96,0.864-1.038,2.344-0.174,3.304l5.02,5.59c0.979,1.088,2.703,1.012,3.591-0.135l8.823-10.293  C58.574,57.172,58.46,55.697,57.479,54.858z M49,29.066c5.776,0,10.459-4.625,10.459-10.33c0-5.705-4.682-10.331-10.459-10.331  S38.541,13.03,38.541,18.736C38.541,24.441,43.224,29.066,49,29.066z M37.755,39.137c3.388-1.683,7.206-2.63,11.245-2.63  s7.857,0.948,11.245,2.63c1.039-1.737,2.368-3.282,3.92-4.566c-1.569-2.535-3.882-4.567-6.628-5.784  c-2.315,1.928-5.299,3.085-8.537,3.085c-3.239,0-6.223-1.157-8.537-3.085c-2.746,1.218-5.059,3.249-6.628,5.784  C35.387,35.856,36.716,37.401,37.755,39.137z M92.154,82.1l-2.415-1.394l-4.018,6.96l2.415,1.394  c1.914,1.105,4.384,0.443,5.489-1.471C94.73,85.675,94.068,83.205,92.154,82.1z M86.474,34.6c-2.315,1.928-5.298,3.085-8.537,3.085  c-3.239,0-6.223-1.157-8.537-3.085c-2.796,1.239-5.143,3.323-6.713,5.923c5.55,3.574,9.612,9.258,11.055,15.918h20.667  c0.493,0,0.896-0.403,0.896-0.896v-7.427C95.304,42.103,91.661,36.899,86.474,34.6z"/>
</svg>
